<svg width="8" height="8" viewBox="0 0 8 8" fill="none" xmlns="http://www.w3.org/2000/svg">
<mask id="path-1-inside-1_2_2" fill="white">
<path d="M7.9308 7.59202L5.98625 5.64789C6.50787 5.04834 6.82369 4.26608 6.82369 3.41109C6.82369 1.52905 5.29253 0 3.41184 0C1.52939 0 0 1.53082 0 3.41109C0 5.29135 1.53116 6.82217 3.41184 6.82217C4.26702 6.82217 5.04946 6.50643 5.64915 5.98492L7.5937 7.92905C7.63983 7.97517 7.70193 8 7.76225 8C7.82258 8 7.88467 7.97694 7.9308 7.92905C8.02306 7.83681 8.02306 7.68426 7.9308 7.59202ZM0.477268 3.41109C0.477268 1.79335 1.79375 0.478936 3.41007 0.478936C5.02817 0.478936 6.34287 1.79512 6.34287 3.41109C6.34287 5.02705 5.02817 6.34501 3.41007 6.34501C1.79375 6.34501 0.477268 5.02882 0.477268 3.41109Z"/>
</mask>
<path d="M7.9308 7.59202L5.98625 5.64789C6.50787 5.04834 6.82369 4.26608 6.82369 3.41109C6.82369 1.52905 5.29253 0 3.41184 0C1.52939 0 0 1.53082 0 3.41109C0 5.29135 1.53116 6.82217 3.41184 6.82217C4.26702 6.82217 5.04946 6.50643 5.64915 5.98492L7.5937 7.92905C7.63983 7.97517 7.70193 8 7.76225 8C7.82258 8 7.88467 7.97694 7.9308 7.92905C8.02306 7.83681 8.02306 7.68426 7.9308 7.59202ZM0.477268 3.41109C0.477268 1.79335 1.79375 0.478936 3.41007 0.478936C5.02817 0.478936 6.34287 1.79512 6.34287 3.41109C6.34287 5.02705 5.02817 6.34501 3.41007 6.34501C1.79375 6.34501 0.477268 5.02882 0.477268 3.41109Z" fill="white"/>
<path d="M7.9308 7.59202L1.56755 13.9567L1.56755 13.9567L7.9308 7.59202ZM5.98625 5.64789L-0.803686 -0.259455L-6.31528 6.0756L-0.377007 12.0126L5.98625 5.64789ZM5.64915 5.98492L12.0124 -0.379743L6.07675 -6.31408L-0.256711 -0.80631L5.64915 5.98492ZM7.5937 7.92905L1.23045 14.2937L1.23045 14.2937L7.5937 7.92905ZM7.9308 7.92905L1.56755 1.56438L1.50751 1.62441L1.44861 1.68555L7.9308 7.92905ZM3.41007 6.34501V15.345V6.34501ZM14.2941 1.22735L12.3495 -0.716772L-0.377007 12.0126L1.56755 13.9567L14.2941 1.22735ZM12.7762 11.5552C14.6645 9.38477 15.8237 6.52469 15.8237 3.41109H-2.17631C-2.17631 2.00746 -1.64878 0.711905 -0.803686 -0.259455L12.7762 11.5552ZM15.8237 3.41109C15.8237 -3.44644 10.2582 -9 3.41184 -9V9C0.326892 9 -2.17631 6.50454 -2.17631 3.41109L15.8237 3.41109ZM3.41184 -9C-3.44234 -9 -9 -3.43858 -9 3.41109H9C9 6.50022 6.50111 9 3.41184 9V-9ZM-9 3.41109C-9 10.2638 -3.43752 15.8222 3.41184 15.8222V-2.17783C6.49984 -2.17783 9 0.318908 9 3.41109H-9ZM3.41184 15.8222C6.52448 15.8222 9.38423 14.6639 11.555 12.7762L-0.256711 -0.80631C0.714681 -1.65106 2.00957 -2.17783 3.41184 -2.17783V15.8222ZM-0.714109 12.3496L1.23045 14.2937L13.957 1.56438L12.0124 -0.379743L-0.714109 12.3496ZM1.23045 14.2937C2.95538 16.0183 5.30268 17 7.76225 17V-1C10.1012 -1 12.3243 -0.0679311 13.957 1.56438L1.23045 14.2937ZM7.76225 17C10.0686 17 12.5368 16.1205 14.413 14.1725L1.44861 1.68555C3.23256 -0.166597 5.57658 -1 7.76225 -1V17ZM14.2941 14.2937C17.902 10.6866 17.902 4.83447 14.2941 1.22735L1.56755 13.9567C-1.85585 10.534 -1.85585 4.98702 1.56755 1.56438L14.2941 14.2937ZM9.47727 3.41109C9.47727 6.76933 6.75888 9.47894 3.41007 9.47894V-8.52106C-3.17139 -8.52106 -8.52273 -3.18264 -8.52273 3.41109H9.47727ZM3.41007 9.47894C0.0559406 9.47894 -2.65713 6.76402 -2.65713 3.41109H15.3429C15.3429 -3.17378 10.0004 -8.52106 3.41007 -8.52106V9.47894ZM-2.65713 3.41109C-2.65713 0.0652359 0.04886 -2.65499 3.41007 -2.65499V15.345C10.0075 15.345 15.3429 9.98887 15.3429 3.41109H-2.65713ZM3.41007 -2.65499C6.76597 -2.65499 9.47727 0.0599233 9.47727 3.41109H-8.52273C-8.52273 9.99773 -3.17848 15.345 3.41007 15.345L3.41007 -2.65499Z" fill="white" mask="url(#path-1-inside-1_2_2)"/>
</svg>
